<?xml version="1.0" standalone="no"?>
<!DOCTYPE svg PUBLIC "-//W3C//DTD SVG 20010904//EN"
 "http://www.w3.org/TR/2001/REC-SVG-20010904/DTD/svg10.dtd">
<svg version="1.0" xmlns="http://www.w3.org/2000/svg"
 width="700.000000pt" height="700.000000pt" viewBox="0 0 700.000000 700.000000"
 preserveAspectRatio="xMidYMid meet">
<metadata>
Created by potrace 1.14, written by Peter Selinger 2001-2017
</metadata>
<g transform="translate(0.000000,700.000000) scale(0.100000,-0.100000)"
fill="#000000" stroke="none">
<path d="M5905 5632 c-44 -7 -153 -35 -195 -49 -202 -68 -393 -223 -545 -442
-44 -63 -134 -233 -165 -311 -12 -30 -26 -64 -31 -75 -50 -119 -125 -427 -144
-600 -4 -33 -9 -68 -11 -79 -2 -10 -6 -59 -10 -110 -3 -50 -7 -109 -9 -131 -5
-57 -5 -446 0 -535 8 -150 25 -302 46 -430 50 -291 159 -610 276 -803 204
-338 453 -514 795 -562 41 -6 234 -7 268 -1 14 3 44 7 67 10 164 21 389 108
553 214 56 37 167 118 185 137 7 7 10 323 9 960 -1 523 -2 955 -3 960 -1 10
-909 10 -919 0 -2 -2 -4 -67 -4 -144 1 -78 1 -230 1 -340 l1 -199 180 2 180 1
0 -391 0 -392 -57 -27 c-106 -51 -299 -65 -413 -31 -223 66 -379 261 -474 591
-30 107 -38 144 -52 248 -2 15 -6 39 -8 53 -25 135 -25 718 -1 814 2 8 6 35 9
60 6 47 8 59 27 150 34 169 123 375 208 480 81 100 148 152 251 193 268 106
620 3 918 -268 l72 -67 0 416 0 415 -91 60 c-240 161 -478 232 -764 229 -71
-1 -139 -4 -150 -6z"/>
<path d="M19 5560 c0 -5 -1 -904 -2 -1997 l0 -1988 296 0 c291 0 297 0 298 20
0 11 0 364 0 784 0 636 2 761 13 745 7 -10 116 -194 241 -409 125 -214 256
-439 291 -498 35 -60 64 -110 64 -113 0 -3 8 -17 19 -32 10 -15 78 -130 151
-257 74 -126 135 -232 137 -235 2 -2 171 -5 374 -5 317 -1 369 1 364 13 -3 8
-140 246 -305 529 -165 282 -300 518 -300 523 0 4 -4 10 -8 12 -4 2 -19 23
-33 48 -47 83 -71 124 -139 240 -37 63 -77 131 -88 150 -10 19 -92 160 -181
312 l-163 278 21 29 c12 16 21 31 21 34 0 2 50 89 112 193 61 104 126 214 143
244 17 30 91 155 163 278 72 122 142 241 155 265 14 23 110 188 216 366 105
178 191 326 191 329 0 2 8 16 19 30 10 15 31 48 45 75 l27 47 -347 -2 -346 -3
-230 -390 c-126 -214 -240 -408 -253 -430 -70 -123 -359 -611 -366 -619 -5 -5
-8 310 -8 700 1 390 0 717 0 727 -1 16 -22 17 -296 17 -189 0 -295 -4 -296
-10z"/>
<path d="M2206 5533 c9 -52 9 -53 39 -188 14 -66 37 -173 50 -238 14 -65 27
-122 29 -125 2 -4 7 -24 10 -44 3 -21 17 -90 31 -155 29 -132 55 -256 62 -293
2 -13 13 -60 23 -105 10 -44 32 -145 49 -225 17 -80 42 -198 56 -263 14 -65
27 -128 29 -140 2 -12 9 -42 15 -67 5 -25 12 -58 15 -75 3 -16 10 -45 15 -63
5 -18 10 -35 10 -37 0 -3 5 -29 10 -58 6 -28 13 -62 15 -73 4 -19 39 -178 52
-239 3 -11 9 -40 14 -65 5 -25 32 -153 60 -285 29 -132 63 -292 77 -355 13
-63 28 -135 34 -160 5 -25 12 -56 15 -70 3 -14 34 -160 69 -325 36 -166 65
-303 65 -306 0 -7 694 -4 706 3 6 4 14 22 17 40 3 18 17 87 32 153 14 66 28
134 31 150 3 17 14 71 25 120 28 127 125 577 155 720 31 146 28 133 60 278 14
65 28 129 30 141 2 11 6 32 9 46 4 14 8 36 11 50 11 57 65 308 75 349 6 25 15
67 20 95 6 28 12 62 15 75 3 12 11 51 19 85 13 58 18 79 30 144 3 15 8 35 11
44 3 10 8 30 10 45 3 16 23 111 45 213 22 102 43 196 45 210 3 14 25 117 49
230 24 113 46 216 49 230 2 14 30 141 60 283 31 142 56 264 56 272 0 13 -43
15 -294 15 -272 0 -295 -1 -300 -17 -5 -16 -80 -374 -91 -433 -4 -20 -43 -206
-61 -285 -2 -11 -7 -33 -9 -50 -3 -16 -8 -37 -10 -45 -2 -8 -7 -30 -10 -48 -3
-18 -23 -117 -45 -220 -21 -103 -41 -198 -44 -212 -3 -14 -7 -36 -10 -50 -3
-14 -10 -47 -15 -75 -6 -27 -31 -149 -56 -270 -26 -121 -48 -230 -51 -241 -2
-12 -13 -66 -25 -120 -23 -111 -108 -528 -115 -560 -17 -87 -65 -308 -67 -310
-1 -2 -22 90 -45 204 -23 114 -63 304 -87 422 -25 118 -47 226 -50 239 -2 14
-9 47 -15 75 -6 28 -12 60 -14 71 -2 11 -12 54 -20 95 -30 140 -53 250 -61
290 -3 14 -7 34 -9 45 -2 11 -14 65 -25 120 -12 55 -33 156 -47 225 -14 69
-27 132 -29 140 -7 29 -66 315 -71 339 -3 13 -25 121 -50 240 -24 119 -47 230
-50 246 -3 17 -9 46 -14 65 -11 43 -18 79 -19 103 -1 16 -22 17 -301 17 l-301
0 7 -37z"/>
</g>
</svg>
